{"title":"Zedd ft. Selena Gomez - I Want Yo Know (2015.EDM)","uid":11755128,"size":118884676,"categoryP":"video","categoryS":"music_videos","magnet":"?xt=urn:btih:094a84e0474e25e6e7a90fcb6789f635db398bf6&amp;dn=Zedd+ft.+Selena+Gomez+-+I+Want+Yo+Know+%282015.EDM%29&amp;tr=udp%3A%2F%2Ftracker.openbittorrent.com%3A80&amp;tr=udp%3A%2F%2Fopen.demonii.com%3A1337&amp;tr=udp%3A%2F%2Ftracker.coppersurfer.tk%3A6969&amp;tr=udp%3A%2F%2Fexodus.desync.com%3A6969","seeders":16,"leechers":0,"uploader":"MeRaDil","files":1,"time":1426351601,"description":"ZEDD ft.SELENA GOMEZ - I WANT YOU TO KNOW\n\n &lt;a href=&quot;\nhttp://gifyu.com/images/zedd.png&quot; rel=&quot;nofollow&quot; target=&quot;_NEW&quot;&gt;\nhttp://gifyu.com/images/zedd.png&lt;/a&gt;\n &lt;a href=&quot;\nhttp://gifyu.com/images/Zedd-Selena.png&quot; rel=&quot;nofollow&quot; target=&quot;_NEW&quot;&gt;\nhttp://gifyu.com/images/Zedd-Selena.png&lt;/a&gt;\n\nGeneral\nZedd ft. Selena Gomez - I Want You To Know\nFormat                      : MPEG-4\nFormat profile              : Base Media\nCodec ID                    : isom\nFile size                   : 113 MiB\nDuration                    : 4mn 6s\nOverall bit rate            : 3 851 Kbps\nMusicVid name               : I Want You To Know\nPerformer                   : Zedd ft. Selena Gomez\nGenre                       : EDM\nContentType                 : Music Video\nRecorded date               : 2015\nCopyright                   : Zedd &amp; Selena Gomez\nCover                       : Yes\nRating                      : ***\nMake                        : MeRaDil\noday                        : 10-03-2015 USA\nRelease                     : USA - march 10 - 2015\nPart_ID                     : I Want You To Know\n\nVideo\nID                          : 1\nFormat                      : AVC\nFormat/Info                 : Advanced Video Codec\nFormat profile              : &lt;a class=&quot;__cf_email__&quot; href=&quot;/cdn-cgi/l/email-protection&quot; data-cfemail=&quot;a3ebcac4cbe3ef978d93&quot;&gt;[email&amp;#160;protected]&lt;/a&gt;&lt;script cf-hash='f9e31' type=&quot;text/javascript&quot;&gt;\n/* &lt;![CDATA[ */!function(){try{var t=&quot;currentScript&quot;in document?document.currentScript:function(){for(var t=document.getElementsByTagName(&quot;script&quot;),e=t.length;e--;)if(t[e].getAttribute(&quot;cf-hash&quot;))return t[e]}();if(t&amp;&amp;t.previousSibling){var e,r,n,i,c=t.previousSibling,a=c.getAttribute(&quot;data-cfemail&quot;);if(a){for(e=&quot;&quot;,r=parseInt(a.substr(0,2),16),n=2;a.length-n;n+=2)i=parseInt(a.substr(n,2),16)^r,e+=String.fromCharCode(i);e=document.createTextNode(e),c.parentNode.replaceChild(e,c)}}}catch(u){}}();/* ]]&gt; */&lt;/script&gt;\nFormat settings, CABAC      : Yes\nFormat settings, ReFrames   : 2 frames\nCodec ID                    : avc1\nCodec ID/Info               : Advanced Video Coding\nDuration                    : 4mn 6s\nBit rate                    : 3 589 Kbps\nWidth                       : 1 920 pixels\nHeight                      : 1 080 pixels\nDisplay aspect ratio        : 16:9\nFrame rate mode             : Variable\nFrame rate                  : 23.976 fps\nMinimum frame rate          : 23.974 fps\nMaximum frame rate          : 23.981 fps\nColor space                 : YUV\nChroma subsampling          : 4:2:0\nBit depth                   : 8 bits\nScan type                   : Progressive\nBits/(Pixel*Frame)          : 0.072\nStream size                 : 106 MiB (93%)\n\nAudio\nID                          : 2\nFormat                      : AAC\nFormat/Info                 : Advanced Audio Codec\nFormat profile              : LC\nCodec ID                    : 40\nDuration                    : 4mn 6s\nBit rate mode               : Constant\nBit rate                    : 256 Kbps\nChannel(s)                  : 2 channels\nChannel positions           : Front: L R\nSampling rate               : 44.1 KHz\nCompression mode            : Lossy\nStream size                 : 7.54 MiB (7%)\n &lt;a href=&quot;\nhttps://thepiratebay.se/user/MeRaDil&quot; rel=&quot;nofollow&quot; target=&quot;_NEW&quot;&gt;\nhttps://thepiratebay.se/user/MeRaDil&lt;/a&gt;\n\nZedd * Selena Gomez * EDM * Electro * Dance * Promo\n\n:)","torrent":{"xt":"urn:btih:094a84e0474e25e6e7a90fcb6789f635db398bf6","amp;dn":"Zedd+ft.+Selena+Gomez+-+I+Want+Yo+Know+%282015.EDM%29","amp;tr":["udp%3A%2F%2Ftracker.openbittorrent.com%3A80","udp%3A%2F%2Fopen.demonii.com%3A1337","udp%3A%2F%2Ftracker.coppersurfer.tk%3A6969","udp%3A%2F%2Fexodus.desync.com%3A6969"],"infoHash":"094a84e0474e25e6e7a90fcb6789f635db398bf6","infoHashBuffer":{"type":"Buffer","data":[9,74,132,224,71,78,37,230,231,169,15,203,103,137,246,53,219,57,139,246]},"announce":[],"urlList":[]}}